{"title":"Barbie, A Perfect Christmas 2011 DVDrip Dutch Klam","uid":6817564,"size":1470865336,"categoryP":"video","categoryS":"movies","magnet":"?xt=urn:btih:f2f0166703f3d41f9b018eb7c93baba67f72aa56&amp;dn=Barbie%2C+A+Perfect+Christmas+2011+DVDrip+Dutch+Klam&amp;tr=udp%3A%2F%2Ftracker.openbittorrent.com%3A80&amp;tr=udp%3A%2F%2Fopen.demonii.com%3A1337&amp;tr=udp%3A%2F%2Ftracker.coppersurfer.tk%3A6969&amp;tr=udp%3A%2F%2Fexodus.desync.com%3A6969","seeders":0,"leechers":0,"uploader":"Klambake","files":-1,"time":1321278902,"description":"Nederlands gesproken,\nDe vakantie van Barbie en haar zusjes Skipper, Stacie en Chelsea krijgt tijdens de feestdagen een onverwachte wending. Nadat hun vliegtuig door een sneeuwstorm wordt omgeleid, bevinden de meiden zich ver weg van hun geplande droomvakantie in New York. Gestrand in een afgelegen herberg in het kleine stadje Tannenbaum zien ze hun droomvakantie al helemaal in het water vallen. Maar al snel beleven ze magische momenten en worden ze gastvrij verwelkomd door nieuwe vrienden. Als dank voor dit overweldigende onthaal, zetten zij al hun muzikale talenten in om een optreden te verzorgen voor de gehele stad. De meiden zien al snel in dat juist het samenzijn het allerbelangrijkste is van een perfecte kerstviering.\n\n------------------ Dutch Friends ------------------\nYou can find my Friends at: http://www.Film-Test.nl \n------ They got my dutch subs ----- and more ------\n\nGeneral:\n\nComplete name                    : Barbie\\A Perfect Christmas.avi\nFormat                           : AVI\nFormat/Info                      : Audio Video Interleave\nFile size                        : 1.37 GiB\nDuration                         : 1h 10mn\nOverall bit rate                 : 2 783 Kbps\n\nVideo:\n\nFormat                           : MPEG-4 Visual\nFormat profile                   : Simple@L3\nFormat settings, BVOP            : No\nFormat settings, QPel            : No\nFormat settings, GMC             : No warppoints\nFormat settings, Matrix          : Default (H.263)\nCodec ID                         : XVID\nCodec ID/Hint                    : XviD\nDuration                         : 1h 10mn\nBit rate                         : 2 388 Kbps\nWidth                            : 704 pixels\nHeight                           : 396 pixels\nDisplay aspect ratio             : 16:9\nFrame rate                       : 25.000 fps\nColor space                      : YUV\nChroma subsampling               : 4:2:0\nBit depth                        : 8 bits\nScan type                        : Progressive\nCompression mode                 : Lossy\nBits/(Pixel*Frame)               : 0.343\nStream size                      : 1.18 GiB (86%)\nWriting library                  : XviD 1.1.2 (UTC 2006-11-01)\n\nAudio:\n\nFormat                           : AC-3\nFormat/Info                      : Audio Coding 3\nMode extension                   : CM (complete main)\nCodec ID                         : 2000\nDuration                         : 1h 10mn\nBit rate mode                    : Constant\nBit rate                         : 384 Kbps\nChannel(s)                       : 6 channels\nChannel positions                : Front: L C R, Side: L R, LFE\nSampling rate                    : 48.0 KHz\nBit depth                        : 16 bits\nCompression mode                 : Lossy\nStream size                      : 194 MiB (14%)\nAlignment                        : Aligned on interleaves\nInterleave, duration             : 32 ms (0.80 video frame)\nInterleave, preload duration     : 128 ms\n\n","torrent":{"xt":"urn:btih:f2f0166703f3d41f9b018eb7c93baba67f72aa56","amp;dn":"Barbie%2C+A+Perfect+Christmas+2011+DVDrip+Dutch+Klam","amp;tr":["udp%3A%2F%2Ftracker.openbittorrent.com%3A80","udp%3A%2F%2Fopen.demonii.com%3A1337","udp%3A%2F%2Ftracker.coppersurfer.tk%3A6969","udp%3A%2F%2Fexodus.desync.com%3A6969"],"infoHash":"f2f0166703f3d41f9b018eb7c93baba67f72aa56","infoHashBuffer":{"type":"Buffer","data":[242,240,22,103,3,243,212,31,155,1,142,183,201,59,171,166,127,114,170,86]},"announce":[],"urlList":[]}}